<?xml version="1.0" encoding="iso-8859-1"?>
<!-- Generator: Adobe Illustrator 19.0.0, SVG Export Plug-In . SVG Version: 6.00 Build 0)  -->
<svg version="1.1" id="Capa_1" xmlns="http://www.w3.org/2000/svg" xmlns:xlink="http://www.w3.org/1999/xlink" x="0px" y="0px"
	 viewBox="0 0 512.004 512.004" style="enable-background:new 0 0 512.004 512.004;" xml:space="preserve">
<path style="fill:#366DB6;" d="M435.202,230.403c-2.185,0-4.369-0.836-6.033-2.5c-3.337-3.337-3.337-8.73,0-12.066l62.234-62.234
	L429.169,91.37c-3.337-3.337-3.337-8.73,0-12.066c3.328-3.337,8.738-3.337,12.066,0l68.267,68.267c3.337,3.337,3.337,8.73,0,12.066
	l-68.267,68.267C439.571,229.567,437.387,230.403,435.202,230.403z"/>
<path style="fill:#1F436D;" d="M435.202,435.203c-2.185,0-4.369-0.836-6.033-2.5c-3.337-3.337-3.337-8.73,0-12.066l62.234-62.234
	l-62.234-62.234c-3.337-3.337-3.337-8.73,0-12.066c3.328-3.337,8.738-3.337,12.066,0l68.267,68.267c3.337,3.337,3.337,8.73,0,12.066
	l-68.267,68.267C439.571,434.367,437.387,435.203,435.202,435.203z"/>
<path style="fill:#366DB6;" d="M76.802,435.203c-2.185,0-4.369-0.836-6.033-2.5L2.502,364.436c-3.337-3.337-3.337-8.73,0-12.066
	l68.267-68.267c3.328-3.337,8.738-3.337,12.066,0c3.337,3.337,3.337,8.73,0,12.066l-62.234,62.234l62.234,62.234
	c3.337,3.337,3.337,8.73,0,12.066C81.171,434.367,78.987,435.203,76.802,435.203z"/>
<g>
	<path style="fill:#1F436D;" d="M76.802,230.403c-2.185,0-4.369-0.836-6.033-2.5L2.502,159.636c-3.337-3.337-3.337-8.73,0-12.066
		l68.267-68.267c3.328-3.337,8.738-3.337,12.066,0c3.337,3.337,3.337,8.73,0,12.066l-62.234,62.234l62.234,62.234
		c3.337,3.337,3.337,8.73,0,12.066C81.171,229.567,78.987,230.403,76.802,230.403z"/>
	<path style="fill:#1F436D;" d="M25.602,162.137H8.535c-4.71,0-8.533-3.823-8.533-8.533s3.823-8.533,8.533-8.533h17.067
		c4.71,0,8.533,3.823,8.533,8.533S30.313,162.137,25.602,162.137z"/>
	<path style="fill:#1F436D;" d="M208.258,204.172c-1.988,0-3.994-0.691-5.606-2.108c-9.395-8.192-19.499-15.232-30.037-20.907
		c-4.147-2.236-5.7-7.407-3.465-11.554c2.236-4.147,7.407-5.717,11.563-3.465c11.657,6.272,22.818,14.037,33.169,23.074
		c3.55,3.098,3.917,8.491,0.819,12.041C213.003,203.182,210.639,204.172,208.258,204.172z M121.978,164.167
		c-0.418,0-0.836-0.026-1.263-0.094c-8.644-1.289-17.673-1.937-26.846-1.937H83.484c-4.71,0-8.533-3.823-8.533-8.533
		s3.823-8.533,8.533-8.533h10.385c10.01,0,19.883,0.708,29.355,2.125c4.659,0.7,7.876,5.035,7.185,9.694
		C129.777,161.121,126.142,164.167,121.978,164.167z"/>
	<path style="fill:#1F436D;" d="M428.316,366.937h-10.18c-10.069,0-20.019-0.725-29.559-2.159c-4.659-0.7-7.868-5.043-7.177-9.702
		c0.7-4.659,5.026-7.902,9.702-7.168c8.713,1.297,17.801,1.963,27.034,1.963h10.18c4.71,0,8.533,3.823,8.533,8.533
		S433.035,366.937,428.316,366.937z M335.166,346.798c-1.365,0-2.756-0.333-4.045-1.024c-11.657-6.289-22.801-14.063-33.143-23.1
		c-3.55-3.106-3.908-8.499-0.802-12.041c3.106-3.541,8.491-3.908,12.041-0.811c9.378,8.201,19.473,15.249,30.012,20.932
		c4.147,2.236,5.692,7.415,3.456,11.563C341.148,345.177,338.204,346.798,335.166,346.798z M266.02,281.014
		c-2.773,0-5.495-1.348-7.134-3.84c-3.55-5.402-7.023-11.119-10.325-16.998c-3.089-5.513-6.357-10.889-9.702-15.974
		c-2.586-3.934-1.502-9.233,2.441-11.819c3.934-2.603,9.233-1.502,11.819,2.441c3.567,5.427,7.04,11.153,10.334,17.007
		c3.098,5.53,6.357,10.897,9.694,15.966c2.586,3.934,1.502,9.233-2.441,11.819C269.254,280.562,267.625,281.014,266.02,281.014z"/>
	<path style="fill:#1F436D;" d="M503.469,366.937h-17.067c-4.71,0-8.533-3.823-8.533-8.533s3.823-8.533,8.533-8.533h17.067
		c4.71,0,8.533,3.823,8.533,8.533S508.179,366.937,503.469,366.937z"/>
</g>
<path style="fill:#366DB6;" d="M93.869,366.937H8.535c-4.71,0-8.533-3.823-8.533-8.533s3.823-8.533,8.533-8.533h85.333
	c66.167,0,118.212-32.99,154.692-98.039c39.159-69.845,97.801-106.761,169.574-106.761h85.333c4.71,0,8.533,3.823,8.533,8.533
	s-3.823,8.533-8.533,8.533h-85.333c-66.167,0-118.212,32.99-154.692,98.039C224.284,330.021,165.643,366.937,93.869,366.937z"/>
<g>
</g>
<g>
</g>
<g>
</g>
<g>
</g>
<g>
</g>
<g>
</g>
<g>
</g>
<g>
</g>
<g>
</g>
<g>
</g>
<g>
</g>
<g>
</g>
<g>
</g>
<g>
</g>
<g>
</g>
</svg>
